/vscmnt/brussel_pixiu_data/_data_brussel/112/vsc11236/PredSimResults/SUBJ09mtu3D/worker8.mot
version=1
nRows=4
nColumns=50
inDegrees=yes
endheader
                time	         pelvis_tilt	         pelvis_list	     pelvis_rotation	           pelvis_tx	           pelvis_ty	           pelvis_tz	       hip_flexion_r	     hip_adduction_r	      hip_rotation_r	        knee_angle_r	       ankle_angle_r	         mtp_angle_r	       hip_flexion_l	     hip_adduction_l	      hip_rotation_l	        knee_angle_l	       ankle_angle_l	         mtp_angle_l	    lumbar_extension	      lumbar_bending	     lumbar_rotation	 ercspn_r/activation	 intobl_r/activation	 extobl_r/activation	    abd_r/activation	    add_r/activation	hamstrings_r/activation	bifemsh_r/activation	glut_max_r/activation	iliopsoas_r/activation	rect_fem_r/activation	  vasti_r/activation	gastroc_r/activation	 soleus_r/activation	tib_ant_r/activation	 ercspn_l/activation	 intobl_l/activation	 extobl_l/activation	    abd_l/activation	    add_l/activation	hamstrings_l/activation	bifemsh_l/activation	glut_max_l/activation	iliopsoas_l/activation	rect_fem_l/activation	  vasti_l/activation	gastroc_l/activation	 soleus_l/activation	tib_ant_l/activation	
          1.26442436	         -3.35181296	         -3.08451327	          7.02965928	          1.56788621	          0.98753037	         -0.00491201	         26.94073459	          1.14300291	         -3.73689563	         -3.37746341	          7.18037111	          0.24538681	        -14.24897970	         -4.07442720	          0.80052192	        -12.26992005	          6.97686718	         35.16514442	        -13.58166519	          1.30518059	          3.96318640	          0.04395935	          0.25364856	          0.03561275	          0.00999999	          0.13917744	          0.06318407	          0.19681421	          0.09558051	          0.11329046	          0.01000001	          0.01000000	          0.05590484	          0.01465881	          0.23117751	          0.01000006	          0.01000000	          0.00999999	          0.02231908	          0.03888325	          0.01079206	          0.15904625	          0.01239819	          0.22964591	          0.01000006	          0.01000001	          0.32311392	          0.25276021	          0.01052367	
          1.27706860	         -3.30966451	         -3.13332406	          7.01049952	          1.58821979	          0.98518326	         -0.00419206	         26.99732623	          1.36597158	         -3.58777377	         -5.58397647	          6.78960063	          0.19866680	        -14.99707206	         -4.27110803	          0.35755367	        -13.06477349	          5.79294120	         36.87339163	        -13.14372246	          1.66866303	          3.73741614	          0.03630792	          0.20949926	          0.02941410	          0.07629029	          0.11495263	          0.06028289	          0.16255731	          0.14474569	          0.09357145	          0.00999999	          0.01000000	          0.04617421	          0.01210737	          0.27032918	          0.01338954	          0.01000000	          0.01210738	          0.01843429	          0.03949483	          0.01774818	          0.13136313	          0.01024021	          0.22708543	          0.01000001	          0.01000001	          0.29576449	          0.22542075	          0.00999999	
          1.28971285	         -3.25687064	         -3.17425147	          6.95130950	          1.60859818	          0.98331502	         -0.00343150	         26.90851176	          1.58926785	         -3.45217583	         -7.55102137	          6.28655463	          0.18598668	        -15.45656464	         -4.44888457	         -0.11202357	        -14.37411485	          4.45281091	         38.51270620	        -12.71729151	          2.03314593	          3.50348030	          0.02998832	          0.17303444	          0.02429437	          0.16840320	          0.12893190	          0.05323020	          0.13426307	          0.17318103	          0.07728468	          0.00999999	          0.00999999	          0.03813726	          0.00999999	          0.30283122	          0.04757112	          0.01000000	          0.01000001	          0.01522567	          0.04070508	          0.01465900	          0.10849845	          0.01000001	          0.26774268	          0.01000002	          0.01264972	          0.26042242	          0.18618473	          0.00999999	
          1.30235709	         -3.19643564	         -3.19691967	          6.85417375	          1.62863629	          0.98218552	         -0.00263453	         26.82848481	          1.80399351	         -3.33275016	         -9.52429437	          5.83326307	          0.14690972	        -15.51414354	         -4.59969950	         -0.58529300	        -16.34674422	          2.99289673	         39.85613688	        -12.34514118	          2.38795999	          3.26502895	          0.04580364	          0.14291658	          0.02006576	          0.22810653	          0.16661260	          0.04396512	          0.11089363	          0.19851788	          0.06383274	          0.01000000	          0.02719324	          0.03149920	          0.01000002	          0.31392618	          0.07153667	          0.00999999	          0.01000000	          0.01257554	          0.06835296	          0.01210751	          0.08961354	          0.01000000	          0.31195176	          0.01000001	          0.01044795	          0.21509406	          0.15377796	          0.00999999	
